<svg xmlns="http://www.w3.org/2000/svg" width="900" height="600" viewBox="0 0 900 600" role="img"><title>Домашние джунгли </title><rect width="900" height="600" fill="#e0edc8"/><circle cx="854" cy="101" r="262" fill="#f29071" opacity=".12"/><text x="46" y="62" font-family="Arial,sans-serif" font-size="27" font-weight="700" fill="#204c36">flowwow</text><text x="46" y="100" font-family="Arial,sans-serif" font-size="11" letter-spacing="2" fill="#204c36">ЦВЕТЫ И ПОДАРКИ</text><g transform="translate(522 100)"><path d="M27 32q0 17 17 17q-17 0-17 17q0-17-17-17q17 0 17-17" fill="#55936c"/><path d="M328 348q0 17 17 17q-17 0-17 17q0-17-17-17q17 0 17-17" fill="#55936c"/><path d="M180 306V86" stroke="#204c36" stroke-width="9"/><path d="M180 170C35 174 50 22 166 87C182 96 184 128 180 170M185 220C325 227 323 73 214 127C184 142 188 179 185 220M174 264C51 270 47 149 136 194C164 208 172 240 174 264" fill="#f29071"/><path d="M102 288h155l-24 114H126z" fill="#55936c"/><rect x="90" y="277" width="178" height="29" rx="10" fill="#204c36"/><path d="M143 342q38 25 75 0" fill="none" stroke="#204c36" stroke-width="6"/></g><text x="44" y="192" font-family="Arial,sans-serif" font-size="59" font-weight="700" letter-spacing="-2" fill="#204c36"><tspan x="44" dy="0">Домашние джунгли</tspan></text><text x="46" y="268.72" font-family="Arial,sans-serif" font-size="24" fill="#204c36"><tspan x="46" dy="0"></tspan></text><rect x="46" y="505" width="201" height="47" rx="24" fill="#204c36"/><text x="69" y="535" font-family="Arial,sans-serif" font-size="17" fill="#e0edc8">Выбрать подарок ↗</text><text x="854" y="562" text-anchor="end" font-family="Arial,sans-serif" font-size="10" letter-spacing="1" fill="#204c36" opacity=".7">ДРАФТ / КОНЦЕПТ</text></svg>